<svg id="bold" enable-background="new 0 0 32 32" height="512" viewBox="0 0 32 32" width="512" xmlns="http://www.w3.org/2000/svg"><path d="m26 32h-20c-3.314 0-6-2.686-6-6v-20c0-3.314 2.686-6 6-6h20c3.314 0 6 2.686 6 6v20c0 3.314-2.686 6-6 6z" fill="#f5e6fe"/><g fill="#be63f9"><path d="m20.667 13.16v4.38c-.327.247-.76.313-1.147.18l-.127-.047c.393-.773.247-1.72-.373-2.353l-2.247-2.247 1.787-.627z"/><path d="m15.247 16.146 2.353 2.314v.007c-.06.213-.173.407-.333.567-.287.28-.667.42-1.04.4l-2.507-2.507c-.06.053-.087.127-.087.2 0 .087.04.18.127.233l2.38 2.333c-.067.16-.16.307-.287.433-.273.273-.633.407-.993.407-.347 0-.693-.127-.96-.387l-1.467-1.327c-.32-.293-.693-.5-1.107-.627.007-.02.007-.04.007-.06v-5.6l1.713-.707c.493-.207 1.047-.167 1.5.08l-.106.055c-.573.287-.98.833-1.093 1.487-.1.633.113 1.287.567 1.747.333.333.78.54 1.253.58-.033.047-.047.093-.047.14 0 .092.04.179.127.232z"/><path d="m18.76 17.46c-.053.107-.12.2-.207.287-.26.26-.567.407-.887.433l-2.407-2.4h.08c.32 0 .64-.08.92-.22l.213-.113 1.147-.58.927.927s0 0 .007.007c.44.445.514 1.132.207 1.659z"/></g><path d="m10.167 18.633h-1.667c-.276 0-.5-.224-.5-.5v-5.667c0-.276.224-.5.5-.5h1.667c.276 0 .5.224.5.5v5.667c0 .276-.224.5-.5.5z" fill="#d9a4fc"/><path d="m23.5 18.633h-1.667c-.276 0-.5-.224-.5-.5v-5.667c0-.276.224-.5.5-.5h1.667c.276 0 .5.224.5.5v5.667c0 .276-.224.5-.5.5z" fill="#d9a4fc"/><path d="m19.96 12.033c-.007 0-.013-.007-.027-.007l-1.526-.626c-.473-.193-1.007-.18-1.467.053l-1.82.913-.38.187c-.387.193-.66.567-.733.993-.067.427.073.867.38 1.173.26.26.607.393.953.393.207 0 .42-.047.613-.147l.22-.113.953-.48 2.653-1.333.887.367v-.94c0-.047 0-.093.013-.133z" fill="#be63f9"/></svg>