<svg id="Capa_1" enable-background="new 0 0 512 512" height="512" viewBox="0 0 512 512" width="512" xmlns="http://www.w3.org/2000/svg"><g><path d="m416 512h-320c-53.024 0-96-42.976-96-96v-320c0-53.024 42.976-96 96-96h320c53.024 0 96 42.977 96 96v320c0 53.024-42.976 96-96 96z" fill="#f5e6fe"/><path d="m377.488 308.368c-5.232-6.191-12.912-9.712-21.008-9.712h-18.24c1.071-4.368 1.92-9.712 1.92-15.152 0-18.88-10.448-27.52-20.16-27.52-15.248 0-15.248 15.888-15.248 22.607 0 5.761-4.271 11.313-8.96 15.568 1.808 3.632 2.88 7.68 2.88 11.952v61.889c0 2.992-.528 5.76-1.392 8.433 8.96 3.728 23.456 7.567 44.576 7.567h8.96c13.552 0 24.848-9.712 27.088-22.832l5.647-30.512c1.409-7.984-.831-16.096-6.063-22.288z" fill="#d9a4fc"/><path d="m272 384c-8.832 0-16-7.168-16-16v-61.903c0-8.832 7.168-16 16-16s16 7.168 16 16v61.903c0 8.832-7.168 16-16 16z" fill="#d9a4fc"/><g fill="#be63f9"><path d="m267.936 256v13.008c-6.607.753-12.799 3.2-17.919 7.04h-69.968v-20.048z"/><path d="m180 228h88v16h-88z"/><path d="m239.36 288c-2.992 5.328-4.688 11.632-4.688 18.128v1.92h-54.608v-20.048z"/><path d="m180 228h88v16h-88z"/><path d="m239.36 288c-2.992 5.328-4.688 11.632-4.688 18.128v1.92h-54.608v-20.048z"/><path d="m180 228h88v16h-88z"/><path d="m267.936 256v13.008c-6.607.753-12.799 3.2-17.919 7.04h-69.968v-20.048z"/><path d="m239.36 288c-2.992 5.328-4.688 11.632-4.688 18.128v1.92h-54.608v-20.048z"/><path d="m320 224v10.672c-8 0-32.848 2.769-36.16 36.16-.208 1.809-.32 3.632-.432 5.553-.32.432-.96 1.168-2.032 2.031l-1.376 1.264v-57.712c0-3.2-2.768-5.969-5.968-5.969h-100.048c-3.2 0-5.968 2.769-5.968 5.969v98.032h-26.048c-7.68 0-13.968-6.288-13.968-13.968v-82.032c0-52.912 43.088-96 96-96s96 43.088 96 96z"/><path d="m239.36 288c-2.992 5.328-4.688 11.632-4.688 18.128v1.92h-54.608v-20.048z"/><path d="m267.936 256v13.008c-6.607.753-12.799 3.2-17.919 7.04h-69.968v-20.048z"/><path d="m180 228h88v16h-88z"/><path d="m239.36 288c-2.992 5.328-4.688 11.632-4.688 18.128v1.92h-54.608v-20.048z"/><path d="m267.936 256v13.008c-6.607.753-12.799 3.2-17.919 7.04h-69.968v-20.048z"/><path d="m180 228h88v16h-88z"/><path d="m239.36 288c-2.992 5.328-4.688 11.632-4.688 18.128v1.92h-54.608v-20.048z"/><path d="m180 228h88v16h-88z"/><path d="m180 228h88v16h-88z"/></g></g></svg>