<svg enable-background="new 0 0 32 32" height="512" viewBox="0 0 32 32" width="512" xmlns="http://www.w3.org/2000/svg"><g id="Layer_2"><path d="m26 32h-20c-3.314 0-6-2.686-6-6v-20c0-3.314 2.686-6 6-6h20c3.314 0 6 2.686 6 6v20c0 3.314-2.686 6-6 6z" fill="#f5e6fe"/></g><g id="bold_1_"><g><path d="m10 15.5c-.171 0-.341-.065-.471-.195-.26-.26-.26-.682 0-.943l4.604-4.604c.26-.26.682-.26.943 0 .26.26.26.682 0 .943l-4.604 4.604c-.131.13-.301.195-.472.195z" fill="#d9a4fc"/><path d="m15.5 12.167c-.13 0-.258-.051-.354-.146l-2.333-2.333c-.143-.143-.186-.358-.108-.545.077-.187.26-.309.462-.309h2.333c.276 0 .5.224.5.5v2.333c0 .202-.122.384-.309.462-.061.025-.127.038-.191.038z" fill="#d9a4fc"/><g fill="#be63f9"><path d="m12.667 18.333v3.833h-4v-3.833c0-.46.373-.833.833-.833h2.333c.46 0 .834.373.834.833z"/><path d="m18 15.667v6.5h-4v-6.5c0-.46.373-.833.833-.833h2.333c.461-.001.834.373.834.833z"/><path d="m23.333 13v9.167h-4v-9.167c0-.46.373-.833.833-.833h2.334c.46 0 .833.373.833.833z"/></g><path d="m23.5 24.167h-15c-.276 0-.5-.224-.5-.5s.224-.5.5-.5h15c.276 0 .5.224.5.5s-.224.5-.5.5z" fill="#d9a4fc"/></g></g></svg>