<svg id="bold" enable-background="new 0 0 32 32" height="512" viewBox="0 0 32 32" width="512" xmlns="http://www.w3.org/2000/svg"><path d="m26 32h-20c-3.314 0-6-2.686-6-6v-20c0-3.314 2.686-6 6-6h20c3.314 0 6 2.686 6 6v20c0 3.314-2.686 6-6 6z" fill="#f5e6fe"/><path d="m10.852 24h-2.352c-.276 0-.5-.224-.5-.5v-10.277c0-.241.171-.447.408-.492.231-.043.474-.065.721-.065 1.144 0 2.208.458 2.995 1.29.693.732 1.316 1.613 1.221 3.078l1.201 1.831c.079.119.12.257.12.401 0 .404-.329.733-.733.733h-.6v1.529c0 .332-.145.647-.397.864s-.585.31-.914.261l-.671-.174v1.021c.001.276-.223.5-.499.5zm2.862-4.58h.007z" fill="#d9a4fc"/><path d="m23.5 24h-2.352c-.276 0-.5-.224-.5-.5v-1.019l-.62.162c-.378.062-.713-.034-.965-.251-.252-.216-.396-.531-.396-.863v-1.529h-.6c-.404 0-.733-.329-.733-.733 0-.145.042-.284.122-.403l1.199-1.829c-.095-1.466.528-2.346 1.221-3.078.788-.832 1.852-1.29 2.995-1.29.249 0 .492.022.722.065.236.044.407.251.407.491v10.277c0 .276-.224.5-.5.5zm-5.208-4.588-.003.003c.001-.001.001-.002.003-.003z" fill="#d9a4fc"/><path d="m16 8c-2.206 0-4 1.794-4 4s1.794 4 4 4 4-1.794 4-4-1.794-4-4-4zm-.083 3.5h.167c.689 0 1.25.561 1.25 1.25 0 .542-.349 1.001-.833 1.173v.243c0 .276-.224.5-.5.5s-.5-.224-.5-.5v-.166h-.333c-.276 0-.5-.224-.5-.5s.224-.5.5-.5h.917c.138 0 .25-.112.25-.25s-.112-.25-.25-.25h-.167c-.689 0-1.25-.561-1.25-1.25 0-.542.349-1.001.833-1.173v-.244c0-.276.224-.5.5-.5s.5.224.5.5v.167h.333c.276 0 .5.224.5.5s-.224.5-.5.5h-.917c-.138 0-.25.112-.25.25s.112.25.25.25z" fill="#be63f9"/></svg>