<svg enable-background="new 0 0 32 32" height="512" viewBox="0 0 32 32" width="512" xmlns="http://www.w3.org/2000/svg"><g id="Layer_2"><path d="m26 32h-20c-3.314 0-6-2.686-6-6v-20c0-3.314 2.686-6 6-6h20c3.314 0 6 2.686 6 6v20c0 3.314-2.686 6-6 6z" fill="#f5e6fe"/></g><g id="bold_1_"><g><path d="m19.333 8h-6.667c-1.103 0-2 .897-2 2v12c0 1.103.897 2 2 2h6.667c1.103 0 2-.897 2-2v-12c0-1.103-.897-2-2-2zm-6.666 1.333h6.667c.367 0 .666.299.666.667v11.333h-8v-11.333c0-.368.299-.667.667-.667z" fill="#be63f9"/><g fill="#d9a4fc"><path d="m13.167 18c-.141 0-.281-.059-.38-.174-.18-.21-.156-.525.054-.705l2.333-2c.171-.146.416-.16.603-.036l.659.439 1.877-1.877c.195-.195.512-.195.707 0s.195.512 0 .707l-2.167 2.167c-.168.169-.432.194-.631.063l-.685-.457-2.046 1.754c-.093.079-.209.119-.324.119z"/><path d="m18.833 16c-.13 0-.258-.051-.354-.146l-1.667-1.667c-.143-.143-.186-.358-.109-.545s.26-.309.462-.309h1.667c.276 0 .5.224.5.5v1.667c0 .202-.122.384-.309.462-.06.026-.125.038-.19.038z"/></g></g></g></svg>