<svg id="bold" enable-background="new 0 0 32 32" height="512" viewBox="0 0 32 32" width="512" xmlns="http://www.w3.org/2000/svg"><path d="m26 32h-20c-3.314 0-6-2.686-6-6v-20c0-3.314 2.686-6 6-6h20c3.314 0 6 2.686 6 6v20c0 3.314-2.686 6-6 6z" fill="#f5e6fe"/><path d="m23.268 17.618c-.001-.001-.003-.003-.004-.004l-.938-.861c.03-.253.044-.506.044-.753s-.014-.5-.043-.753l.941-.865c.39-.367.48-.95.215-1.423l-1.105-1.912c-.262-.466-.829-.688-1.35-.525l-1.215.383c-.409-.309-.845-.562-1.303-.756l-.281-1.249c-.118-.53-.579-.9-1.12-.9h-2.217c-.541 0-1.002.37-1.12.899l-.281 1.249c-.458.194-.894.447-1.303.756l-1.218-.384c-.52-.162-1.086.061-1.344.521l-1.112 1.924c-.262.467-.172 1.05.222 1.421l.938.861c-.029.253-.044.506-.044.753s.014.5.043.753l-.941.865c-.39.367-.48.95-.215 1.423l1.105 1.912c.262.465.828.686 1.35.525l1.215-.383c.409.309.845.562 1.303.756l.281 1.249c.118.53.579.9 1.12.9h2.217c.541 0 1.002-.37 1.12-.899l.281-1.249c.458-.194.894-.447 1.303-.756l1.217.384c.519.161 1.085-.06 1.344-.521l1.112-1.924c.263-.467.173-1.05-.217-1.417zm-7.518-2.118h.5c.781 0 1.417.635 1.417 1.417 0 .696-.505 1.273-1.167 1.391v.525c0 .276-.224.5-.5.5s-.5-.224-.5-.5v-.5h-.667c-.276 0-.5-.224-.5-.5s.224-.5.5-.5h1.417c.23 0 .417-.187.417-.417s-.187-.417-.417-.417h-.5c-.781 0-1.417-.635-1.417-1.417 0-.696.505-1.273 1.167-1.391v-.525c0-.276.224-.5.5-.5s.5.224.5.5v.5h.667c.276 0 .5.224.5.5s-.224.5-.5.5h-1.417c-.23 0-.417.187-.417.417s.187.417.417.417z" fill="#be63f9"/></svg>